<?xml version="1.0" encoding="UTF-8" standalone="no"?>
<!DOCTYPE svg PUBLIC "-//W3C//DTD SVG 1.1//EN"
 "http://www.w3.org/Graphics/SVG/1.1/DTD/svg11.dtd">
<!-- Generated by graphviz version 13.0.0 (20250608.1624)
 -->
<!-- Pages: 1 -->
<svg width="299pt" height="674pt"
 viewBox="0.00 0.00 299.00 674.00" xmlns="http://www.w3.org/2000/svg" xmlns:xlink="http://www.w3.org/1999/xlink">
<g id="graph0" class="graph" transform="scale(1 1) rotate(0) translate(4 670)">
<polygon fill="white" stroke="none" points="-4,4 -4,-670 295.38,-670 295.38,4 -4,4"/>
<!-- A -->
<g id="node1" class="node">
<title>A</title>
<polygon fill="none" stroke="black" points="291.38,-666 63.12,-666 63.12,-630 291.38,-630 291.38,-666"/>
<text xml:space="preserve" text-anchor="middle" x="177.25" y="-642.95" font-family="Times,serif" font-size="14.00">Start: for each payload size &amp; iteration</text>
</g>
<!-- B -->
<g id="node2" class="node">
<title>B</title>
<polygon fill="none" stroke="black" points="202.62,-593 29.88,-593 29.88,-557 202.62,-557 202.62,-593"/>
<text xml:space="preserve" text-anchor="middle" x="116.25" y="-569.95" font-family="Times,serif" font-size="14.00">Generate 5 random payloads</text>
</g>
<!-- A&#45;&gt;B -->
<g id="edge1" class="edge">
<title>A&#45;&gt;B</title>
<path fill="none" stroke="black" d="M162.48,-629.81C155.22,-621.35 146.31,-610.98 138.26,-601.61"/>
<polygon fill="black" stroke="black" points="141.04,-599.48 131.87,-594.18 135.73,-604.04 141.04,-599.48"/>
</g>
<!-- C -->
<g id="node3" class="node">
<title>C</title>
<polygon fill="none" stroke="black" points="206.5,-520 0,-520 0,-479 206.5,-479 206.5,-520"/>
<text xml:space="preserve" text-anchor="middle" x="103.25" y="-502.7" font-family="Times,serif" font-size="14.00">Build empty block for slot+1</text>
<text xml:space="preserve" text-anchor="middle" x="103.25" y="-486.2" font-family="Times,serif" font-size="14.00">Insert dummy BLS &amp; KZG proofs</text>
</g>
<!-- B&#45;&gt;C -->
<g id="edge2" class="edge">
<title>B&#45;&gt;C</title>
<path fill="none" stroke="black" d="M113.17,-556.58C111.85,-549.11 110.26,-540.15 108.75,-531.6"/>
<polygon fill="black" stroke="black" points="112.22,-531.12 107.03,-521.88 105.33,-532.34 112.22,-531.12"/>
</g>
<!-- D -->
<g id="node4" class="node">
<title>D</title>
<polygon fill="none" stroke="black" points="167.5,-442 39,-442 39,-401 167.5,-401 167.5,-442"/>
<text xml:space="preserve" text-anchor="middle" x="103.25" y="-424.7" font-family="Times,serif" font-size="14.00">Record mem_before</text>
<text xml:space="preserve" text-anchor="middle" x="103.25" y="-408.2" font-family="Times,serif" font-size="14.00">Start timer</text>
</g>
<!-- C&#45;&gt;D -->
<g id="edge3" class="edge">
<title>C&#45;&gt;D</title>
<path fill="none" stroke="black" d="M103.25,-478.53C103.25,-470.94 103.25,-462.1 103.25,-453.71"/>
<polygon fill="black" stroke="black" points="106.75,-453.85 103.25,-443.85 99.75,-453.85 106.75,-453.85"/>
</g>
<!-- E -->
<g id="node5" class="node">
<title>E</title>
<polygon fill="none" stroke="black" points="199.38,-348.5 7.12,-348.5 7.12,-312.5 199.38,-312.5 199.38,-348.5"/>
<text xml:space="preserve" text-anchor="middle" x="103.25" y="-325.45" font-family="Times,serif" font-size="14.00">spec.process_block(state, block)</text>
</g>
<!-- D&#45;&gt;E -->
<g id="edge4" class="edge">
<title>D&#45;&gt;E</title>
<path fill="none" stroke="black" d="M103.25,-400.75C103.25,-388.83 103.25,-373.44 103.25,-360.19"/>
<polygon fill="black" stroke="black" points="106.75,-360.31 103.25,-350.31 99.75,-360.31 106.75,-360.31"/>
</g>
<!-- F -->
<g id="node6" class="node">
<title>F</title>
<polygon fill="none" stroke="black" points="192.12,-275.5 16.38,-275.5 16.38,-234.5 192.12,-234.5 192.12,-275.5"/>
<text xml:space="preserve" text-anchor="middle" x="104.25" y="-258.2" font-family="Times,serif" font-size="14.00">Stop timer</text>
<text xml:space="preserve" text-anchor="middle" x="104.25" y="-241.7" font-family="Times,serif" font-size="14.00">Record mem_after &amp; CPU%</text>
</g>
<!-- E&#45;&gt;F -->
<g id="edge5" class="edge">
<title>E&#45;&gt;F</title>
<path fill="none" stroke="black" d="M103.49,-312.08C103.59,-304.7 103.71,-295.85 103.82,-287.4"/>
<polygon fill="black" stroke="black" points="107.32,-287.45 103.96,-277.4 100.32,-287.35 107.32,-287.45"/>
</g>
<!-- G -->
<g id="node7" class="node">
<title>G</title>
<polygon fill="none" stroke="black" points="205.75,-197.5 6.75,-197.5 6.75,-161.5 205.75,-161.5 205.75,-197.5"/>
<text xml:space="preserve" text-anchor="middle" x="106.25" y="-174.45" font-family="Times,serif" font-size="14.00">Compute latency &amp; log CSV row</text>
</g>
<!-- F&#45;&gt;G -->
<g id="edge6" class="edge">
<title>F&#45;&gt;G</title>
<path fill="none" stroke="black" d="M104.79,-234.3C105,-226.56 105.24,-217.51 105.47,-209.07"/>
<polygon fill="black" stroke="black" points="108.97,-209.35 105.74,-199.26 101.97,-209.16 108.97,-209.35"/>
</g>
<!-- H -->
<g id="node8" class="node">
<title>H</title>
<polygon fill="none" stroke="black" points="170.25,-124.5 67.95,-106.5 170.25,-88.5 272.55,-106.5 170.25,-124.5"/>
<text xml:space="preserve" text-anchor="middle" x="170.25" y="-101.45" font-family="Times,serif" font-size="14.00">More iterations?</text>
</g>
<!-- G&#45;&gt;H -->
<g id="edge7" class="edge">
<title>G&#45;&gt;H</title>
<path fill="none" stroke="black" d="M121.74,-161.31C129.98,-152.17 140.23,-140.8 149.19,-130.87"/>
<polygon fill="black" stroke="black" points="151.53,-133.5 155.62,-123.72 146.33,-128.81 151.53,-133.5"/>
</g>
<!-- H&#45;&gt;A -->
<g id="edge8" class="edge">
<title>H&#45;&gt;A</title>
<path fill="none" stroke="black" d="M193.36,-120.64C211.69,-132.97 234.25,-153.28 234.25,-178.5 234.25,-576 234.25,-576 234.25,-576 234.25,-593.89 223.1,-609.85 210.67,-622.07"/>
<polygon fill="black" stroke="black" points="208.6,-619.23 203.54,-628.54 213.3,-624.42 208.6,-619.23"/>
<text xml:space="preserve" text-anchor="middle" x="243.25" y="-369.7" font-family="Times,serif" font-size="14.00">yes</text>
</g>
<!-- I -->
<g id="node9" class="node">
<title>I</title>
<ellipse fill="none" stroke="black" cx="170.25" cy="-18" rx="27" ry="18"/>
<text xml:space="preserve" text-anchor="middle" x="170.25" y="-12.95" font-family="Times,serif" font-size="14.00">End</text>
</g>
<!-- H&#45;&gt;I -->
<g id="edge9" class="edge">
<title>H&#45;&gt;I</title>
<path fill="none" stroke="black" d="M170.25,-88C170.25,-76.51 170.25,-61.2 170.25,-47.93"/>
<polygon fill="black" stroke="black" points="173.75,-47.99 170.25,-37.99 166.75,-47.99 173.75,-47.99"/>
<text xml:space="preserve" text-anchor="middle" x="177" y="-57.2" font-family="Times,serif" font-size="14.00">no</text>
</g>
</g>
</svg>
