<?xml version="1.0" encoding="UTF-8" standalone="no"?>
<!DOCTYPE svg PUBLIC "-//W3C//DTD SVG 1.1//EN"
 "http://www.w3.org/Graphics/SVG/1.1/DTD/svg11.dtd">
<!-- Generated by graphviz version 13.0.0 (20250608.1624)
 -->
<!-- Pages: 1 -->
<svg width="523pt" height="566pt"
 viewBox="0.00 0.00 523.00 566.00" xmlns="http://www.w3.org/2000/svg" xmlns:xlink="http://www.w3.org/1999/xlink">
<g id="graph0" class="graph" transform="scale(1 1) rotate(0) translate(4 562)">
<polygon fill="white" stroke="none" points="-4,4 -4,-562 519.12,-562 519.12,4 -4,4"/>
<!-- A -->
<g id="node1" class="node">
<title>A</title>
<polygon fill="none" stroke="black" points="515.12,-558 319.88,-558 319.88,-522 515.12,-522 515.12,-558"/>
<text xml:space="preserve" text-anchor="middle" x="417.5" y="-534.95" font-family="Times,serif" font-size="14.00">for each payload size &amp; iteration</text>
</g>
<!-- B -->
<g id="node2" class="node">
<title>B</title>
<polygon fill="none" stroke="black" points="431.25,-485 299.75,-485 299.75,-444 431.25,-444 431.25,-485"/>
<text xml:space="preserve" text-anchor="middle" x="365.5" y="-467.7" font-family="Times,serif" font-size="14.00">Measure CPU before</text>
<text xml:space="preserve" text-anchor="middle" x="365.5" y="-451.2" font-family="Times,serif" font-size="14.00">Start timer</text>
</g>
<!-- A&#45;&gt;B -->
<g id="edge1" class="edge">
<title>A&#45;&gt;B</title>
<path fill="none" stroke="black" d="M405.18,-521.58C399.47,-513.52 392.54,-503.71 386.07,-494.57"/>
<polygon fill="black" stroke="black" points="389.08,-492.77 380.45,-486.63 383.36,-496.81 389.08,-492.77"/>
</g>
<!-- C -->
<g id="node3" class="node">
<title>C</title>
<polygon fill="none" stroke="black" points="333.12,-407 161.88,-407 161.88,-366 333.12,-366 333.12,-407"/>
<text xml:space="preserve" text-anchor="middle" x="247.5" y="-389.7" font-family="Times,serif" font-size="14.00">Repeat 5×:</text>
<text xml:space="preserve" text-anchor="middle" x="247.5" y="-373.2" font-family="Times,serif" font-size="14.00">runElasticoTransaction(size)</text>
</g>
<!-- B&#45;&gt;C -->
<g id="edge2" class="edge">
<title>B&#45;&gt;C</title>
<path fill="none" stroke="black" d="M334.5,-443.53C320.13,-434.28 302.89,-423.17 287.55,-413.3"/>
<polygon fill="black" stroke="black" points="289.87,-410.63 279.57,-408.15 286.08,-416.51 289.87,-410.63"/>
</g>
<!-- D -->
<g id="node4" class="node">
<title>D</title>
<polygon fill="none" stroke="black" points="436.38,-313.5 260.62,-313.5 260.62,-256 436.38,-256 436.38,-313.5"/>
<text xml:space="preserve" text-anchor="middle" x="348.5" y="-296.2" font-family="Times,serif" font-size="14.00">runElasticoTransaction():</text>
<text xml:space="preserve" text-anchor="middle" x="348.5" y="-279.7" font-family="Times,serif" font-size="14.00">– NewIDProof</text>
<text xml:space="preserve" text-anchor="middle" x="348.5" y="-263.2" font-family="Times,serif" font-size="14.00">– simulateCommitteePBFT()</text>
</g>
<!-- C&#45;&gt;D -->
<g id="edge3" class="edge">
<title>C&#45;&gt;D</title>
<path fill="none" stroke="black" d="M267.45,-365.79C280.16,-353.24 297.01,-336.61 312.04,-321.75"/>
<polygon fill="black" stroke="black" points="314.44,-324.31 319.1,-314.79 309.52,-319.32 314.44,-324.31"/>
</g>
<!-- F -->
<g id="node6" class="node">
<title>F</title>
<polygon fill="none" stroke="black" points="169,-305.25 0,-305.25 0,-264.25 169,-264.25 169,-305.25"/>
<text xml:space="preserve" text-anchor="middle" x="84.5" y="-287.95" font-family="Times,serif" font-size="14.00">Stop timer</text>
<text xml:space="preserve" text-anchor="middle" x="84.5" y="-271.45" font-family="Times,serif" font-size="14.00">Measure CPU after &amp; mem</text>
</g>
<!-- C&#45;&gt;F -->
<g id="edge6" class="edge">
<title>C&#45;&gt;F</title>
<path fill="none" stroke="black" d="M176.28,-365.53C164.35,-360.71 152.46,-354.91 142,-348 128.3,-338.96 115.62,-325.98 105.67,-314.2"/>
<polygon fill="black" stroke="black" points="108.6,-312.26 99.58,-306.7 103.17,-316.67 108.6,-312.26"/>
<text xml:space="preserve" text-anchor="middle" x="166.75" y="-334.7" font-family="Times,serif" font-size="14.00">after 5 tx</text>
</g>
<!-- E -->
<g id="node5" class="node">
<title>E</title>
<polygon fill="none" stroke="black" points="431.5,-219 235.5,-219 235.5,-161.5 431.5,-161.5 431.5,-219"/>
<text xml:space="preserve" text-anchor="middle" x="333.5" y="-201.7" font-family="Times,serif" font-size="14.00">simulateCommitteePBFT():</text>
<text xml:space="preserve" text-anchor="middle" x="333.5" y="-185.2" font-family="Times,serif" font-size="14.00">3 PBFT phases</text>
<text xml:space="preserve" text-anchor="middle" x="333.5" y="-168.7" font-family="Times,serif" font-size="14.00">(dummy compute + sleep 50ms)</text>
</g>
<!-- D&#45;&gt;E -->
<g id="edge4" class="edge">
<title>D&#45;&gt;E</title>
<path fill="none" stroke="black" d="M343.96,-255.75C342.68,-247.85 341.26,-239.11 339.89,-230.68"/>
<polygon fill="black" stroke="black" points="343.38,-230.28 338.32,-220.97 336.47,-231.4 343.38,-230.28"/>
</g>
<!-- E&#45;&gt;C -->
<g id="edge5" class="edge">
<title>E&#45;&gt;C</title>
<path fill="none" stroke="black" d="M252.95,-219.42C237.44,-228.63 223.18,-240.59 214,-256 195.46,-287.14 211.97,-328.44 227.69,-355.94"/>
<polygon fill="black" stroke="black" points="224.66,-357.7 232.82,-364.46 230.66,-354.08 224.66,-357.7"/>
<text xml:space="preserve" text-anchor="middle" x="232.75" y="-279.7" font-family="Times,serif" font-size="14.00">next tx</text>
</g>
<!-- G -->
<g id="node7" class="node">
<title>G</title>
<polygon fill="none" stroke="black" points="208,-208.25 9,-208.25 9,-172.25 208,-172.25 208,-208.25"/>
<text xml:space="preserve" text-anchor="middle" x="108.5" y="-185.2" font-family="Times,serif" font-size="14.00">Compute latency &amp; log CSV row</text>
</g>
<!-- F&#45;&gt;G -->
<g id="edge7" class="edge">
<title>F&#45;&gt;G</title>
<path fill="none" stroke="black" d="M89.59,-264.13C92.96,-251.16 97.42,-233.95 101.17,-219.51"/>
<polygon fill="black" stroke="black" points="104.48,-220.68 103.6,-210.12 97.7,-218.92 104.48,-220.68"/>
</g>
<!-- H -->
<g id="node8" class="node">
<title>H</title>
<polygon fill="none" stroke="black" points="286.5,-124.5 184.2,-106.5 286.5,-88.5 388.8,-106.5 286.5,-124.5"/>
<text xml:space="preserve" text-anchor="middle" x="286.5" y="-101.45" font-family="Times,serif" font-size="14.00">More iterations?</text>
</g>
<!-- G&#45;&gt;H -->
<g id="edge8" class="edge">
<title>G&#45;&gt;H</title>
<path fill="none" stroke="black" d="M146.25,-171.91C176.47,-158.04 218.64,-138.67 248.83,-124.8"/>
<polygon fill="black" stroke="black" points="249.97,-128.13 257.6,-120.77 247.05,-121.77 249.97,-128.13"/>
</g>
<!-- H&#45;&gt;A -->
<g id="edge9" class="edge">
<title>H&#45;&gt;A</title>
<path fill="none" stroke="black" d="M357.62,-112.43C407.2,-120.2 464.5,-139.86 464.5,-189.25 464.5,-465.5 464.5,-465.5 464.5,-465.5 464.5,-483.22 454.68,-500.1 444.02,-513.2"/>
<polygon fill="black" stroke="black" points="441.58,-510.67 437.62,-520.49 446.84,-515.29 441.58,-510.67"/>
<text xml:space="preserve" text-anchor="middle" x="473.5" y="-334.7" font-family="Times,serif" font-size="14.00">yes</text>
</g>
<!-- I -->
<g id="node9" class="node">
<title>I</title>
<ellipse fill="none" stroke="black" cx="286.5" cy="-18" rx="27" ry="18"/>
<text xml:space="preserve" text-anchor="middle" x="286.5" y="-12.95" font-family="Times,serif" font-size="14.00">End</text>
</g>
<!-- H&#45;&gt;I -->
<g id="edge10" class="edge">
<title>H&#45;&gt;I</title>
<path fill="none" stroke="black" d="M286.5,-88C286.5,-76.51 286.5,-61.2 286.5,-47.93"/>
<polygon fill="black" stroke="black" points="290,-47.99 286.5,-37.99 283,-47.99 290,-47.99"/>
<text xml:space="preserve" text-anchor="middle" x="293.25" y="-57.2" font-family="Times,serif" font-size="14.00">no</text>
</g>
</g>
</svg>
