<?xml version="1.0" encoding="UTF-8" standalone="no"?>
<!DOCTYPE svg PUBLIC "-//W3C//DTD SVG 1.1//EN"
 "http://www.w3.org/Graphics/SVG/1.1/DTD/svg11.dtd">
<!-- Generated by graphviz version 13.0.0 (20250608.1624)
 -->
<!-- Pages: 1 -->
<svg width="359pt" height="826pt"
 viewBox="0.00 0.00 359.00 826.00" xmlns="http://www.w3.org/2000/svg" xmlns:xlink="http://www.w3.org/1999/xlink">
<g id="graph0" class="graph" transform="scale(1 1) rotate(0) translate(4 822)">
<polygon fill="white" stroke="none" points="-4,4 -4,-822 354.5,-822 354.5,4 -4,4"/>
<!-- A -->
<g id="node1" class="node">
<title>A</title>
<polygon fill="none" stroke="black" points="350.5,-818 98.25,-818 98.25,-782 350.5,-782 350.5,-818"/>
<text xml:space="preserve" text-anchor="middle" x="224.38" y="-794.95" font-family="Times,serif" font-size="14.00">Init: register &amp; build RapidchainConsensus</text>
</g>
<!-- B -->
<g id="node2" class="node">
<title>B</title>
<polygon fill="none" stroke="black" points="315.25,-745 133.5,-745 133.5,-709 315.25,-709 315.25,-745"/>
<text xml:space="preserve" text-anchor="middle" x="224.38" y="-721.95" font-family="Times,serif" font-size="14.00">for each payload size &amp; round</text>
</g>
<!-- A&#45;&gt;B -->
<g id="edge1" class="edge">
<title>A&#45;&gt;B</title>
<path fill="none" stroke="black" d="M224.38,-781.81C224.38,-774.23 224.38,-765.1 224.38,-756.54"/>
<polygon fill="black" stroke="black" points="227.88,-756.54 224.38,-746.54 220.88,-756.54 227.88,-756.54"/>
</g>
<!-- C -->
<g id="node3" class="node">
<title>C</title>
<polygon fill="none" stroke="black" points="263.88,-672 46.88,-672 46.88,-636 263.88,-636 263.88,-672"/>
<text xml:space="preserve" text-anchor="middle" x="155.38" y="-648.95" font-family="Times,serif" font-size="14.00">Generate &amp; concat 5 random chunks</text>
</g>
<!-- B&#45;&gt;C -->
<g id="edge2" class="edge">
<title>B&#45;&gt;C</title>
<path fill="none" stroke="black" d="M207.67,-708.81C199.28,-700.18 188.96,-689.56 179.7,-680.03"/>
<polygon fill="black" stroke="black" points="182.46,-677.85 172.98,-673.11 177.44,-682.72 182.46,-677.85"/>
</g>
<!-- D -->
<g id="node4" class="node">
<title>D</title>
<polygon fill="none" stroke="black" points="254.88,-599 43.88,-599 43.88,-558 254.88,-558 254.88,-599"/>
<text xml:space="preserve" text-anchor="middle" x="149.38" y="-581.7" font-family="Times,serif" font-size="14.00">Build block struct</text>
<text xml:space="preserve" text-anchor="middle" x="149.38" y="-565.2" font-family="Times,serif" font-size="14.00">(Round, Issuer, Payload, PrevHash)</text>
</g>
<!-- C&#45;&gt;D -->
<g id="edge3" class="edge">
<title>C&#45;&gt;D</title>
<path fill="none" stroke="black" d="M153.95,-635.58C153.34,-628.11 152.61,-619.15 151.91,-610.6"/>
<polygon fill="black" stroke="black" points="155.42,-610.58 151.12,-600.9 148.45,-611.15 155.42,-610.58"/>
</g>
<!-- E -->
<g id="node5" class="node">
<title>E</title>
<polygon fill="none" stroke="black" points="139.38,-521 13.13,-480 139.37,-439 265.62,-480 139.38,-521"/>
<text xml:space="preserve" text-anchor="middle" x="139.38" y="-483.2" font-family="Times,serif" font-size="14.00">IsLeader?</text>
<text xml:space="preserve" text-anchor="middle" x="139.38" y="-466.7" font-family="Times,serif" font-size="14.00">(Propose vs Decide)</text>
</g>
<!-- D&#45;&gt;E -->
<g id="edge4" class="edge">
<title>D&#45;&gt;E</title>
<path fill="none" stroke="black" d="M147.3,-557.51C146.51,-549.81 145.56,-540.64 144.59,-531.36"/>
<polygon fill="black" stroke="black" points="148.09,-531.18 143.58,-521.59 141.13,-531.9 148.09,-531.18"/>
</g>
<!-- F1 -->
<g id="node6" class="node">
<title>F1</title>
<polygon fill="none" stroke="black" points="112.75,-386.5 0,-386.5 0,-312.5 112.75,-312.5 112.75,-386.5"/>
<text xml:space="preserve" text-anchor="middle" x="56.38" y="-369.2" font-family="Times,serif" font-size="14.00">Propose():</text>
<text xml:space="preserve" text-anchor="middle" x="56.38" y="-352.7" font-family="Times,serif" font-size="14.00">– Emulate cost</text>
<text xml:space="preserve" text-anchor="middle" x="56.38" y="-336.2" font-family="Times,serif" font-size="14.00">– Chunk &amp; sign</text>
<text xml:space="preserve" text-anchor="middle" x="56.38" y="-319.7" font-family="Times,serif" font-size="14.00">– PROPOSE vote</text>
</g>
<!-- E&#45;&gt;F1 -->
<g id="edge5" class="edge">
<title>E&#45;&gt;F1</title>
<path fill="none" stroke="black" d="M117.78,-445.57C108.07,-430.53 96.44,-412.53 85.93,-396.26"/>
<polygon fill="black" stroke="black" points="89.09,-394.69 80.72,-388.19 83.21,-398.49 89.09,-394.69"/>
<text xml:space="preserve" text-anchor="middle" x="109.36" y="-407.7" font-family="Times,serif" font-size="14.00">yes</text>
</g>
<!-- F2 -->
<g id="node7" class="node">
<title>F2</title>
<polygon fill="none" stroke="black" points="258.25,-378.25 130.5,-378.25 130.5,-320.75 258.25,-320.75 258.25,-378.25"/>
<text xml:space="preserve" text-anchor="middle" x="194.38" y="-360.95" font-family="Times,serif" font-size="14.00">Decide():</text>
<text xml:space="preserve" text-anchor="middle" x="194.38" y="-344.45" font-family="Times,serif" font-size="14.00">– Wait &amp; participate</text>
<text xml:space="preserve" text-anchor="middle" x="194.38" y="-327.95" font-family="Times,serif" font-size="14.00">– echo/accept votes</text>
</g>
<!-- E&#45;&gt;F2 -->
<g id="edge6" class="edge">
<title>E&#45;&gt;F2</title>
<path fill="none" stroke="black" d="M154.55,-443.55C161.82,-426.57 170.53,-406.2 177.95,-388.86"/>
<polygon fill="black" stroke="black" points="181.07,-390.48 181.79,-379.91 174.64,-387.72 181.07,-390.48"/>
<text xml:space="preserve" text-anchor="middle" x="176.92" y="-407.7" font-family="Times,serif" font-size="14.00">no</text>
</g>
<!-- G -->
<g id="node8" class="node">
<title>G</title>
<polygon fill="none" stroke="black" points="264.88,-275.5 77.88,-275.5 77.88,-234.5 264.88,-234.5 264.88,-275.5"/>
<text xml:space="preserve" text-anchor="middle" x="171.38" y="-258.2" font-family="Times,serif" font-size="14.00">Measure latency, CPU%, mem</text>
<text xml:space="preserve" text-anchor="middle" x="171.38" y="-241.7" font-family="Times,serif" font-size="14.00">Compute throughput</text>
</g>
<!-- F1&#45;&gt;G -->
<g id="edge7" class="edge">
<title>F1&#45;&gt;G</title>
<path fill="none" stroke="black" d="M101.5,-312.21C113.61,-302.46 126.5,-292.1 137.86,-282.96"/>
<polygon fill="black" stroke="black" points="139.82,-285.87 145.42,-276.88 135.44,-280.42 139.82,-285.87"/>
</g>
<!-- F2&#45;&gt;G -->
<g id="edge8" class="edge">
<title>F2&#45;&gt;G</title>
<path fill="none" stroke="black" d="M187.41,-320.5C184.79,-309.95 181.79,-297.9 179.11,-287.09"/>
<polygon fill="black" stroke="black" points="182.52,-286.31 176.71,-277.45 175.73,-288 182.52,-286.31"/>
</g>
<!-- H -->
<g id="node9" class="node">
<title>H</title>
<polygon fill="none" stroke="black" points="263.25,-197.5 93.5,-197.5 93.5,-161.5 263.25,-161.5 263.25,-197.5"/>
<text xml:space="preserve" text-anchor="middle" x="178.38" y="-174.45" font-family="Times,serif" font-size="14.00">Advance prevHash &amp; round</text>
</g>
<!-- G&#45;&gt;H -->
<g id="edge9" class="edge">
<title>G&#45;&gt;H</title>
<path fill="none" stroke="black" d="M173.25,-234.3C173.99,-226.56 174.85,-217.51 175.65,-209.07"/>
<polygon fill="black" stroke="black" points="179.12,-209.54 176.59,-199.25 172.16,-208.88 179.12,-209.54"/>
</g>
<!-- I -->
<g id="node10" class="node">
<title>I</title>
<polygon fill="none" stroke="black" points="236.38,-124.5 147.11,-106.5 236.37,-88.5 325.64,-106.5 236.38,-124.5"/>
<text xml:space="preserve" text-anchor="middle" x="236.38" y="-101.45" font-family="Times,serif" font-size="14.00">More rounds?</text>
</g>
<!-- H&#45;&gt;I -->
<g id="edge10" class="edge">
<title>H&#45;&gt;I</title>
<path fill="none" stroke="black" d="M192.42,-161.31C199.91,-152.14 209.24,-140.72 217.38,-130.76"/>
<polygon fill="black" stroke="black" points="219.85,-133.26 223.47,-123.3 214.43,-128.83 219.85,-133.26"/>
</g>
<!-- I&#45;&gt;B -->
<g id="edge11" class="edge">
<title>I&#45;&gt;B</title>
<path fill="none" stroke="black" d="M256.31,-120.74C272.75,-133.41 293.38,-154.16 293.38,-178.5 293.38,-655 293.38,-655 293.38,-655 293.38,-674.25 280.16,-690.25 265.3,-702.16"/>
<polygon fill="black" stroke="black" points="263.64,-699.04 257.67,-707.79 267.79,-704.67 263.64,-699.04"/>
<text xml:space="preserve" text-anchor="middle" x="302.38" y="-407.7" font-family="Times,serif" font-size="14.00">yes</text>
</g>
<!-- J -->
<g id="node11" class="node">
<title>J</title>
<ellipse fill="none" stroke="black" cx="236.38" cy="-18" rx="27" ry="18"/>
<text xml:space="preserve" text-anchor="middle" x="236.38" y="-12.95" font-family="Times,serif" font-size="14.00">End</text>
</g>
<!-- I&#45;&gt;J -->
<g id="edge12" class="edge">
<title>I&#45;&gt;J</title>
<path fill="none" stroke="black" d="M236.38,-88C236.38,-76.51 236.38,-61.2 236.38,-47.93"/>
<polygon fill="black" stroke="black" points="239.88,-47.99 236.38,-37.99 232.88,-47.99 239.88,-47.99"/>
<text xml:space="preserve" text-anchor="middle" x="243.12" y="-57.2" font-family="Times,serif" font-size="14.00">no</text>
</g>
</g>
</svg>
